<svg width="642" height="708" viewBox="0 0 642 708" fill="none" xmlns="http://www.w3.org/2000/svg">
<g filter="url(#filter0_i_5_39)">
<rect y="344.055" width="63.8453" height="152.519" rx="31.9227" fill="#EF5350"/>
</g>
<rect x="7.09392" y="351.149" width="49.6575" height="138.331" rx="24.8287" stroke="#B91C19" stroke-width="14.1878"/>
<rect x="585.249" y="351.149" width="49.6575" height="138.331" rx="24.8287" fill="#EF5350" stroke="#B91C19" stroke-width="14.1878"/>
<line x1="322.774" y1="102.862" x2="322.774" y2="227.006" stroke="#B91C19" stroke-width="14.1878"/>
<g filter="url(#filter1_i_5_39)">
<rect x="244.74" y="166.707" width="156.066" height="92.221" rx="46.1105" fill="#EF5350"/>
</g>
<rect x="251.834" y="173.801" width="141.878" height="78.0331" rx="39.0166" stroke="#B91C19" stroke-width="14.1878"/>
<g filter="url(#filter2_i_5_39)">
<circle cx="322.774" cy="56.7513" r="56.7514" fill="#EF5350"/>
</g>
<circle cx="322.774" cy="56.7513" r="49.6575" stroke="#B91C19" stroke-width="14.1878"/>
<g filter="url(#filter3_i_5_39)">
<path d="M31.9222 411.447C31.9222 303.706 119.264 216.365 227.005 216.365H414.994C522.735 216.365 610.077 303.706 610.077 411.448V503.669C610.077 556.56 567.2 599.436 514.309 599.436H127.69C74.7991 599.436 31.9222 556.56 31.9222 503.668V411.447Z" fill="#EF5350"/>
</g>
<path d="M39.0162 411.447C39.0162 307.624 123.182 223.459 227.005 223.459H414.994C518.817 223.459 602.983 307.624 602.983 411.448V503.669C602.983 552.642 563.282 592.343 514.309 592.343H127.69C78.7169 592.343 39.0162 552.642 39.0162 503.668V411.447Z" stroke="#B91C19" stroke-width="14.1878"/>
<circle cx="198.63" cy="351.149" r="70.9392" fill="white" stroke="#B91C19" stroke-width="14.1878"/>
<circle cx="198.63" cy="351.149" r="39.0166" fill="#0C0C0C"/>
<circle cx="184.442" cy="344.056" r="14.1878" fill="white"/>
<circle cx="439.823" cy="351.149" r="70.9392" fill="white" stroke="#B91C19" stroke-width="14.1878"/>
<circle cx="439.823" cy="351.149" r="39.0166" fill="#0C0C0C"/>
<circle cx="425.635" cy="344.056" r="14.1878" fill="white"/>
<path d="M251.834 475.293C280.21 530.271 360.017 530.271 390.166 475.293" stroke="#B91C19" stroke-width="14.1878" stroke-linecap="round"/>
<ellipse cx="319.798" cy="698.864" rx="240.449" ry="8.41573" fill="black" fill-opacity="0.1"/>
<defs>
<filter id="filter0_i_5_39" x="0" y="344.055" width="63.8453" height="152.519" filterUnits="userSpaceOnUse" color-interpolation-filters="sRGB">
<feFlood flood-opacity="0" result="BackgroundImageFix"/>
<feBlend mode="normal" in="SourceGraphic" in2="BackgroundImageFix" result="shape"/>
<feColorMatrix in="SourceAlpha" type="matrix" values="0 0 0 0 0 0 0 0 0 0 0 0 0 0 0 0 0 0 127 0" result="hardAlpha"/>
<feOffset dx="28.3757" dy="10.6409"/>
<feComposite in2="hardAlpha" operator="arithmetic" k2="-1" k3="1"/>
<feColorMatrix type="matrix" values="0 0 0 0 1 0 0 0 0 1 0 0 0 0 1 0 0 0 0.25 0"/>
<feBlend mode="normal" in2="shape" result="effect1_innerShadow_5_39"/>
</filter>
<filter id="filter1_i_5_39" x="244.74" y="166.707" width="156.066" height="92.221" filterUnits="userSpaceOnUse" color-interpolation-filters="sRGB">
<feFlood flood-opacity="0" result="BackgroundImageFix"/>
<feBlend mode="normal" in="SourceGraphic" in2="BackgroundImageFix" result="shape"/>
<feColorMatrix in="SourceAlpha" type="matrix" values="0 0 0 0 0 0 0 0 0 0 0 0 0 0 0 0 0 0 127 0" result="hardAlpha"/>
<feOffset dx="28.3757" dy="10.6409"/>
<feComposite in2="hardAlpha" operator="arithmetic" k2="-1" k3="1"/>
<feColorMatrix type="matrix" values="0 0 0 0 1 0 0 0 0 1 0 0 0 0 1 0 0 0 0.25 0"/>
<feBlend mode="normal" in2="shape" result="effect1_innerShadow_5_39"/>
</filter>
<filter id="filter2_i_5_39" x="266.022" y="-6.10352e-05" width="113.503" height="113.503" filterUnits="userSpaceOnUse" color-interpolation-filters="sRGB">
<feFlood flood-opacity="0" result="BackgroundImageFix"/>
<feBlend mode="normal" in="SourceGraphic" in2="BackgroundImageFix" result="shape"/>
<feColorMatrix in="SourceAlpha" type="matrix" values="0 0 0 0 0 0 0 0 0 0 0 0 0 0 0 0 0 0 127 0" result="hardAlpha"/>
<feOffset dx="28.3757" dy="10.6409"/>
<feComposite in2="hardAlpha" operator="arithmetic" k2="-1" k3="1"/>
<feColorMatrix type="matrix" values="0 0 0 0 1 0 0 0 0 1 0 0 0 0 1 0 0 0 0.25 0"/>
<feBlend mode="normal" in2="shape" result="effect1_innerShadow_5_39"/>
</filter>
<filter id="filter3_i_5_39" x="31.9222" y="216.365" width="578.155" height="383.072" filterUnits="userSpaceOnUse" color-interpolation-filters="sRGB">
<feFlood flood-opacity="0" result="BackgroundImageFix"/>
<feBlend mode="normal" in="SourceGraphic" in2="BackgroundImageFix" result="shape"/>
<feColorMatrix in="SourceAlpha" type="matrix" values="0 0 0 0 0 0 0 0 0 0 0 0 0 0 0 0 0 0 127 0" result="hardAlpha"/>
<feOffset dx="28.3757" dy="10.6409"/>
<feComposite in2="hardAlpha" operator="arithmetic" k2="-1" k3="1"/>
<feColorMatrix type="matrix" values="0 0 0 0 1 0 0 0 0 1 0 0 0 0 1 0 0 0 0.25 0"/>
<feBlend mode="normal" in2="shape" result="effect1_innerShadow_5_39"/>
</filter>
</defs>
</svg>
